<?xml version="1.0" standalone="no" ?>
<!DOCTYPE svg PUBLIC "-//W3C//DTD SVG 1.0//EN" "http://www.w3.org/TR/2001/REC-SVG-20010904/DTD/svg10.dtd">
<svg style="vertical-align: -0.566ex" xmlns="http://www.w3.org/2000/svg" width="25.958ex" height="2.262ex" role="img" focusable="false" viewBox="0 -750 11473.2 1000">
<style>
  * {
    fill: ;
    background-color: transparent;
  }
</style><g stroke="currentColor" fill="currentColor" stroke-width="0" transform="scale(1,-1)"><g data-mml-node="math"><g data-mml-node="mo"><path data-c="5B" d="M118 -250V750H255V710H158V-210H255V-250H118Z"></path></g><g data-mml-node="TeXAtom" data-mjx-texclass="ORD" transform="translate(278,0)"><g data-mml-node="mo"><path data-c="24" d="M162 187Q162 164 146 149T109 133H103V130Q108 115 115 105Q122 92 131 82T150 64T170 52T190 44T206 40T220 37L227 36V313Q190 320 162 335Q116 358 86 404T55 508Q55 567 85 614T165 685Q186 696 225 704H227V750H273V704L286 703Q369 690 413 631Q441 588 444 531Q444 514 443 509Q439 490 425 479T391 468Q368 468 353 483T337 522Q337 546 353 560T390 575L394 576V578Q386 599 372 614T342 637T314 649T288 656L273 658V408L288 405Q329 394 355 376Q396 348 420 300T444 199Q444 130 408 76T313 1Q286 -9 276 -9H273V-56H227V-10H221Q202 -6 193 -4T155 11T108 41T74 94T55 176V182Q55 227 95 238Q103 240 108 240Q129 240 145 226T162 187ZM225 657Q219 657 204 651T169 632T135 594T121 538Q121 512 131 491T156 457T187 435T213 423T227 420V539Q227 657 225 657ZM378 169Q378 230 339 265T274 301Q273 301 273 169V37Q324 50 351 87T378 169Z"></path></g></g><g data-mml-node="msub" transform="translate(778,0)"><g data-mml-node="mi"><path data-c="1D441" d="M234 637Q231 637 226 637Q201 637 196 638T191 649Q191 676 202 682Q204 683 299 683Q376 683 387 683T401 677Q612 181 616 168L670 381Q723 592 723 606Q723 633 659 637Q635 637 635 648Q635 650 637 660Q641 676 643 679T653 683Q656 683 684 682T767 680Q817 680 843 681T873 682Q888 682 888 672Q888 650 880 642Q878 637 858 637Q787 633 769 597L620 7Q618 0 599 0Q585 0 582 2Q579 5 453 305L326 604L261 344Q196 88 196 79Q201 46 268 46H278Q284 41 284 38T282 19Q278 6 272 0H259Q228 2 151 2Q123 2 100 2T63 2T46 1Q31 1 31 10Q31 14 34 26T39 40Q41 46 62 46Q130 49 150 85Q154 91 221 362L289 634Q287 635 234 637Z"></path></g><g data-mml-node="TeXAtom" transform="translate(836,-150) scale(0.707)" data-mjx-texclass="ORD"><g data-mml-node="mtext"><path data-c="74" d="M27 422Q80 426 109 478T141 600V615H181V431H316V385H181V241Q182 116 182 100T189 68Q203 29 238 29Q282 29 292 100Q293 108 293 146V181H333V146V134Q333 57 291 17Q264 -10 221 -10Q187 -10 162 2T124 33T105 68T98 100Q97 107 97 248V385H18V422H27Z"></path><path data-c="6F" d="M28 214Q28 309 93 378T250 448Q340 448 405 380T471 215Q471 120 407 55T250 -10Q153 -10 91 57T28 214ZM250 30Q372 30 372 193V225V250Q372 272 371 288T364 326T348 362T317 390T268 410Q263 411 252 411Q222 411 195 399Q152 377 139 338T126 246V226Q126 130 145 91Q177 30 250 30Z" transform="translate(389,0)"></path><path data-c="6B" d="M36 46H50Q89 46 97 60V68Q97 77 97 91T97 124T98 167T98 217T98 272T98 329Q98 366 98 407T98 482T98 542T97 586T97 603Q94 622 83 628T38 637H20V660Q20 683 22 683L32 684Q42 685 61 686T98 688Q115 689 135 690T165 693T176 694H179V463L180 233L240 287Q300 341 304 347Q310 356 310 364Q310 383 289 385H284V431H293Q308 428 412 428Q475 428 484 431H489V385H476Q407 380 360 341Q286 278 286 274Q286 273 349 181T420 79Q434 60 451 53T500 46H511V0H505Q496 3 418 3Q322 3 307 0H299V46H306Q330 48 330 65Q330 72 326 79Q323 84 276 153T228 222L176 176V120V84Q176 65 178 59T189 49Q210 46 238 46H254V0H246Q231 3 137 3T28 0H20V46H36Z" transform="translate(889,0)"></path><path data-c="65" d="M28 218Q28 273 48 318T98 391T163 433T229 448Q282 448 320 430T378 380T406 316T415 245Q415 238 408 231H126V216Q126 68 226 36Q246 30 270 30Q312 30 342 62Q359 79 369 104L379 128Q382 131 395 131H398Q415 131 415 121Q415 117 412 108Q393 53 349 21T250 -11Q155 -11 92 58T28 218ZM333 275Q322 403 238 411H236Q228 411 220 410T195 402T166 381T143 340T127 274V267H333V275Z" transform="translate(1417,0)"></path><path data-c="6E" d="M41 46H55Q94 46 102 60V68Q102 77 102 91T102 122T103 161T103 203Q103 234 103 269T102 328V351Q99 370 88 376T43 385H25V408Q25 431 27 431L37 432Q47 433 65 434T102 436Q119 437 138 438T167 441T178 442H181V402Q181 364 182 364T187 369T199 384T218 402T247 421T285 437Q305 442 336 442Q450 438 463 329Q464 322 464 190V104Q464 66 466 59T477 49Q498 46 526 46H542V0H534L510 1Q487 2 460 2T422 3Q319 3 310 0H302V46H318Q379 46 379 62Q380 64 380 200Q379 335 378 343Q372 371 358 385T334 402T308 404Q263 404 229 370Q202 343 195 315T187 232V168V108Q187 78 188 68T191 55T200 49Q221 46 249 46H265V0H257L234 1Q210 2 183 2T145 3Q42 3 33 0H25V46H41Z" transform="translate(1861,0)"></path></g></g></g><g data-mml-node="TeXAtom" data-mjx-texclass="ORD" transform="translate(3373.1,0)"><g data-mml-node="mo"><path data-c="24" d="M162 187Q162 164 146 149T109 133H103V130Q108 115 115 105Q122 92 131 82T150 64T170 52T190 44T206 40T220 37L227 36V313Q190 320 162 335Q116 358 86 404T55 508Q55 567 85 614T165 685Q186 696 225 704H227V750H273V704L286 703Q369 690 413 631Q441 588 444 531Q444 514 443 509Q439 490 425 479T391 468Q368 468 353 483T337 522Q337 546 353 560T390 575L394 576V578Q386 599 372 614T342 637T314 649T288 656L273 658V408L288 405Q329 394 355 376Q396 348 420 300T444 199Q444 130 408 76T313 1Q286 -9 276 -9H273V-56H227V-10H221Q202 -6 193 -4T155 11T108 41T74 94T55 176V182Q55 227 95 238Q103 240 108 240Q129 240 145 226T162 187ZM225 657Q219 657 204 651T169 632T135 594T121 538Q121 512 131 491T156 457T187 435T213 423T227 420V539Q227 657 225 657ZM378 169Q378 230 339 265T274 301Q273 301 273 169V37Q324 50 351 87T378 169Z"></path></g></g><g data-mml-node="mo" transform="translate(3873.1,0)"><path data-c="2C" d="M78 35T78 60T94 103T137 121Q165 121 187 96T210 8Q210 -27 201 -60T180 -117T154 -158T130 -185T117 -194Q113 -194 104 -185T95 -172Q95 -168 106 -156T131 -126T157 -76T173 -3V9L172 8Q170 7 167 6T161 3T152 1T140 0Q113 0 96 17Z"></path></g><g data-mml-node="TeXAtom" data-mjx-texclass="ORD" transform="translate(4317.7,0)"><g data-mml-node="mo"><path data-c="24" d="M162 187Q162 164 146 149T109 133H103V130Q108 115 115 105Q122 92 131 82T150 64T170 52T190 44T206 40T220 37L227 36V313Q190 320 162 335Q116 358 86 404T55 508Q55 567 85 614T165 685Q186 696 225 704H227V750H273V704L286 703Q369 690 413 631Q441 588 444 531Q444 514 443 509Q439 490 425 479T391 468Q368 468 353 483T337 522Q337 546 353 560T390 575L394 576V578Q386 599 372 614T342 637T314 649T288 656L273 658V408L288 405Q329 394 355 376Q396 348 420 300T444 199Q444 130 408 76T313 1Q286 -9 276 -9H273V-56H227V-10H221Q202 -6 193 -4T155 11T108 41T74 94T55 176V182Q55 227 95 238Q103 240 108 240Q129 240 145 226T162 187ZM225 657Q219 657 204 651T169 632T135 594T121 538Q121 512 131 491T156 457T187 435T213 423T227 420V539Q227 657 225 657ZM378 169Q378 230 339 265T274 301Q273 301 273 169V37Q324 50 351 87T378 169Z"></path></g></g><g data-mml-node="msub" transform="translate(4817.7,0)"><g data-mml-node="mi"><path data-c="1D441" d="M234 637Q231 637 226 637Q201 637 196 638T191 649Q191 676 202 682Q204 683 299 683Q376 683 387 683T401 677Q612 181 616 168L670 381Q723 592 723 606Q723 633 659 637Q635 637 635 648Q635 650 637 660Q641 676 643 679T653 683Q656 683 684 682T767 680Q817 680 843 681T873 682Q888 682 888 672Q888 650 880 642Q878 637 858 637Q787 633 769 597L620 7Q618 0 599 0Q585 0 582 2Q579 5 453 305L326 604L261 344Q196 88 196 79Q201 46 268 46H278Q284 41 284 38T282 19Q278 6 272 0H259Q228 2 151 2Q123 2 100 2T63 2T46 1Q31 1 31 10Q31 14 34 26T39 40Q41 46 62 46Q130 49 150 85Q154 91 221 362L289 634Q287 635 234 637Z"></path></g><g data-mml-node="TeXAtom" transform="translate(836,-150) scale(0.707)" data-mjx-texclass="ORD"><g data-mml-node="mtext"><path data-c="74" d="M27 422Q80 426 109 478T141 600V615H181V431H316V385H181V241Q182 116 182 100T189 68Q203 29 238 29Q282 29 292 100Q293 108 293 146V181H333V146V134Q333 57 291 17Q264 -10 221 -10Q187 -10 162 2T124 33T105 68T98 100Q97 107 97 248V385H18V422H27Z"></path><path data-c="6F" d="M28 214Q28 309 93 378T250 448Q340 448 405 380T471 215Q471 120 407 55T250 -10Q153 -10 91 57T28 214ZM250 30Q372 30 372 193V225V250Q372 272 371 288T364 326T348 362T317 390T268 410Q263 411 252 411Q222 411 195 399Q152 377 139 338T126 246V226Q126 130 145 91Q177 30 250 30Z" transform="translate(389,0)"></path><path data-c="6B" d="M36 46H50Q89 46 97 60V68Q97 77 97 91T97 124T98 167T98 217T98 272T98 329Q98 366 98 407T98 482T98 542T97 586T97 603Q94 622 83 628T38 637H20V660Q20 683 22 683L32 684Q42 685 61 686T98 688Q115 689 135 690T165 693T176 694H179V463L180 233L240 287Q300 341 304 347Q310 356 310 364Q310 383 289 385H284V431H293Q308 428 412 428Q475 428 484 431H489V385H476Q407 380 360 341Q286 278 286 274Q286 273 349 181T420 79Q434 60 451 53T500 46H511V0H505Q496 3 418 3Q322 3 307 0H299V46H306Q330 48 330 65Q330 72 326 79Q323 84 276 153T228 222L176 176V120V84Q176 65 178 59T189 49Q210 46 238 46H254V0H246Q231 3 137 3T28 0H20V46H36Z" transform="translate(889,0)"></path><path data-c="65" d="M28 218Q28 273 48 318T98 391T163 433T229 448Q282 448 320 430T378 380T406 316T415 245Q415 238 408 231H126V216Q126 68 226 36Q246 30 270 30Q312 30 342 62Q359 79 369 104L379 128Q382 131 395 131H398Q415 131 415 121Q415 117 412 108Q393 53 349 21T250 -11Q155 -11 92 58T28 218ZM333 275Q322 403 238 411H236Q228 411 220 410T195 402T166 381T143 340T127 274V267H333V275Z" transform="translate(1417,0)"></path><path data-c="6E" d="M41 46H55Q94 46 102 60V68Q102 77 102 91T102 122T103 161T103 203Q103 234 103 269T102 328V351Q99 370 88 376T43 385H25V408Q25 431 27 431L37 432Q47 433 65 434T102 436Q119 437 138 438T167 441T178 442H181V402Q181 364 182 364T187 369T199 384T218 402T247 421T285 437Q305 442 336 442Q450 438 463 329Q464 322 464 190V104Q464 66 466 59T477 49Q498 46 526 46H542V0H534L510 1Q487 2 460 2T422 3Q319 3 310 0H302V46H318Q379 46 379 62Q380 64 380 200Q379 335 378 343Q372 371 358 385T334 402T308 404Q263 404 229 370Q202 343 195 315T187 232V168V108Q187 78 188 68T191 55T200 49Q221 46 249 46H265V0H257L234 1Q210 2 183 2T145 3Q42 3 33 0H25V46H41Z" transform="translate(1861,0)"></path></g></g></g><g data-mml-node="TeXAtom" data-mjx-texclass="ORD" transform="translate(7412.8,0)"><g data-mml-node="mo"><path data-c="24" d="M162 187Q162 164 146 149T109 133H103V130Q108 115 115 105Q122 92 131 82T150 64T170 52T190 44T206 40T220 37L227 36V313Q190 320 162 335Q116 358 86 404T55 508Q55 567 85 614T165 685Q186 696 225 704H227V750H273V704L286 703Q369 690 413 631Q441 588 444 531Q444 514 443 509Q439 490 425 479T391 468Q368 468 353 483T337 522Q337 546 353 560T390 575L394 576V578Q386 599 372 614T342 637T314 649T288 656L273 658V408L288 405Q329 394 355 376Q396 348 420 300T444 199Q444 130 408 76T313 1Q286 -9 276 -9H273V-56H227V-10H221Q202 -6 193 -4T155 11T108 41T74 94T55 176V182Q55 227 95 238Q103 240 108 240Q129 240 145 226T162 187ZM225 657Q219 657 204 651T169 632T135 594T121 538Q121 512 131 491T156 457T187 435T213 423T227 420V539Q227 657 225 657ZM378 169Q378 230 339 265T274 301Q273 301 273 169V37Q324 50 351 87T378 169Z"></path></g></g><g data-mml-node="mo" transform="translate(7912.8,0)"><path data-c="2C" d="M78 35T78 60T94 103T137 121Q165 121 187 96T210 8Q210 -27 201 -60T180 -117T154 -158T130 -185T117 -194Q113 -194 104 -185T95 -172Q95 -168 106 -156T131 -126T157 -76T173 -3V9L172 8Q170 7 167 6T161 3T152 1T140 0Q113 0 96 17Z"></path></g><g data-mml-node="TeXAtom" data-mjx-texclass="ORD" transform="translate(8357.5,0)"><g data-mml-node="mo"><path data-c="24" d="M162 187Q162 164 146 149T109 133H103V130Q108 115 115 105Q122 92 131 82T150 64T170 52T190 44T206 40T220 37L227 36V313Q190 320 162 335Q116 358 86 404T55 508Q55 567 85 614T165 685Q186 696 225 704H227V750H273V704L286 703Q369 690 413 631Q441 588 444 531Q444 514 443 509Q439 490 425 479T391 468Q368 468 353 483T337 522Q337 546 353 560T390 575L394 576V578Q386 599 372 614T342 637T314 649T288 656L273 658V408L288 405Q329 394 355 376Q396 348 420 300T444 199Q444 130 408 76T313 1Q286 -9 276 -9H273V-56H227V-10H221Q202 -6 193 -4T155 11T108 41T74 94T55 176V182Q55 227 95 238Q103 240 108 240Q129 240 145 226T162 187ZM225 657Q219 657 204 651T169 632T135 594T121 538Q121 512 131 491T156 457T187 435T213 423T227 420V539Q227 657 225 657ZM378 169Q378 230 339 265T274 301Q273 301 273 169V37Q324 50 351 87T378 169Z"></path></g></g><g data-mml-node="msub" transform="translate(8857.5,0)"><g data-mml-node="mi"><path data-c="210E" d="M137 683Q138 683 209 688T282 694Q294 694 294 685Q294 674 258 534Q220 386 220 383Q220 381 227 388Q288 442 357 442Q411 442 444 415T478 336Q478 285 440 178T402 50Q403 36 407 31T422 26Q450 26 474 56T513 138Q516 149 519 151T535 153Q555 153 555 145Q555 144 551 130Q535 71 500 33Q466 -10 419 -10H414Q367 -10 346 17T325 74Q325 90 361 192T398 345Q398 404 354 404H349Q266 404 205 306L198 293L164 158Q132 28 127 16Q114 -11 83 -11Q69 -11 59 -2T48 16Q48 30 121 320L195 616Q195 629 188 632T149 637H128Q122 643 122 645T124 664Q129 683 137 683Z"></path></g><g data-mml-node="TeXAtom" transform="translate(609,-150) scale(0.707)" data-mjx-texclass="ORD"><g data-mml-node="mtext"><path data-c="64" d="M376 495Q376 511 376 535T377 568Q377 613 367 624T316 637H298V660Q298 683 300 683L310 684Q320 685 339 686T376 688Q393 689 413 690T443 693T454 694H457V390Q457 84 458 81Q461 61 472 55T517 46H535V0Q533 0 459 -5T380 -11H373V44L365 37Q307 -11 235 -11Q158 -11 96 50T34 215Q34 315 97 378T244 442Q319 442 376 393V495ZM373 342Q328 405 260 405Q211 405 173 369Q146 341 139 305T131 211Q131 155 138 120T173 59Q203 26 251 26Q322 26 373 103V342Z"></path><path data-c="69" d="M69 609Q69 637 87 653T131 669Q154 667 171 652T188 609Q188 579 171 564T129 549Q104 549 87 564T69 609ZM247 0Q232 3 143 3Q132 3 106 3T56 1L34 0H26V46H42Q70 46 91 49Q100 53 102 60T104 102V205V293Q104 345 102 359T88 378Q74 385 41 385H30V408Q30 431 32 431L42 432Q52 433 70 434T106 436Q123 437 142 438T171 441T182 442H185V62Q190 52 197 50T232 46H255V0H247Z" transform="translate(556,0)"></path><path data-c="6D" d="M41 46H55Q94 46 102 60V68Q102 77 102 91T102 122T103 161T103 203Q103 234 103 269T102 328V351Q99 370 88 376T43 385H25V408Q25 431 27 431L37 432Q47 433 65 434T102 436Q119 437 138 438T167 441T178 442H181V402Q181 364 182 364T187 369T199 384T218 402T247 421T285 437Q305 442 336 442Q351 442 364 440T387 434T406 426T421 417T432 406T441 395T448 384T452 374T455 366L457 361L460 365Q463 369 466 373T475 384T488 397T503 410T523 422T546 432T572 439T603 442Q729 442 740 329Q741 322 741 190V104Q741 66 743 59T754 49Q775 46 803 46H819V0H811L788 1Q764 2 737 2T699 3Q596 3 587 0H579V46H595Q656 46 656 62Q657 64 657 200Q656 335 655 343Q649 371 635 385T611 402T585 404Q540 404 506 370Q479 343 472 315T464 232V168V108Q464 78 465 68T468 55T477 49Q498 46 526 46H542V0H534L510 1Q487 2 460 2T422 3Q319 3 310 0H302V46H318Q379 46 379 62Q380 64 380 200Q379 335 378 343Q372 371 358 385T334 402T308 404Q263 404 229 370Q202 343 195 315T187 232V168V108Q187 78 188 68T191 55T200 49Q221 46 249 46H265V0H257L234 1Q210 2 183 2T145 3Q42 3 33 0H25V46H41Z" transform="translate(834,0)"></path></g></g></g><g data-mml-node="TeXAtom" data-mjx-texclass="ORD" transform="translate(10695.2,0)"><g data-mml-node="mo"><path data-c="24" d="M162 187Q162 164 146 149T109 133H103V130Q108 115 115 105Q122 92 131 82T150 64T170 52T190 44T206 40T220 37L227 36V313Q190 320 162 335Q116 358 86 404T55 508Q55 567 85 614T165 685Q186 696 225 704H227V750H273V704L286 703Q369 690 413 631Q441 588 444 531Q444 514 443 509Q439 490 425 479T391 468Q368 468 353 483T337 522Q337 546 353 560T390 575L394 576V578Q386 599 372 614T342 637T314 649T288 656L273 658V408L288 405Q329 394 355 376Q396 348 420 300T444 199Q444 130 408 76T313 1Q286 -9 276 -9H273V-56H227V-10H221Q202 -6 193 -4T155 11T108 41T74 94T55 176V182Q55 227 95 238Q103 240 108 240Q129 240 145 226T162 187ZM225 657Q219 657 204 651T169 632T135 594T121 538Q121 512 131 491T156 457T187 435T213 423T227 420V539Q227 657 225 657ZM378 169Q378 230 339 265T274 301Q273 301 273 169V37Q324 50 351 87T378 169Z"></path></g></g><g data-mml-node="mo" transform="translate(11195.2,0)"><path data-c="5D" d="M22 710V750H159V-250H22V-210H119V710H22Z"></path></g></g></g></svg>